<svg id="Layer_1" data-name="Layer 1" xmlns="http://www.w3.org/2000/svg" viewBox="0 0 874 960"><defs><style>.cls-1,.cls-2{fill:#f90007;}.cls-1{fill-rule:evenodd;}</style></defs><title>Artboard2_7 6-01</title><path class="cls-1" d="M255.9,724.1H143.6a8.39,8.39,0,0,1-8.4-8.4V148.4a8.39,8.39,0,0,1,8.4-8.4H729.2a8.39,8.39,0,0,1,8.4,8.4V473.7H720.9v-317H152V707.3H256v16.8Z"/><path class="cls-2" d="M132.5,756.7H175v12.9H146.4v12.9h26.4v12.9H146.4v24.7h-14V756.7Z"/><path class="cls-2" d="M181.7,788.4a35.73,35.73,0,0,1,2.6-13.8,30.94,30.94,0,0,1,7.1-10.5,32.27,32.27,0,0,1,10.8-6.7,37.9,37.9,0,0,1,13.7-2.3,40.18,40.18,0,0,1,13.7,2.3,31.31,31.31,0,0,1,10.8,6.7,30.94,30.94,0,0,1,7.1,10.5,37.92,37.92,0,0,1,0,27.6,30.94,30.94,0,0,1-7.1,10.5,32.27,32.27,0,0,1-10.8,6.7,37.9,37.9,0,0,1-13.7,2.3,40.18,40.18,0,0,1-13.7-2.3,31.31,31.31,0,0,1-10.8-6.7,30.94,30.94,0,0,1-7.1-10.5A34,34,0,0,1,181.7,788.4Zm14.5,0a23.91,23.91,0,0,0,1.4,8.2,18.52,18.52,0,0,0,10.2,10.8,22.62,22.62,0,0,0,16.2,0,16.88,16.88,0,0,0,6.2-4.3,18.71,18.71,0,0,0,4-6.5,23.91,23.91,0,0,0,1.4-8.2,24.77,24.77,0,0,0-1.4-8.2,18.71,18.71,0,0,0-4-6.5,19.66,19.66,0,0,0-6.2-4.3,22.62,22.62,0,0,0-16.2,0,16.88,16.88,0,0,0-6.2,4.3,18.71,18.71,0,0,0-4,6.5A24.33,24.33,0,0,0,196.2,788.4Z"/><path class="cls-2" d="M313.1,795.6a31.5,31.5,0,0,1-1.7,10.4,21.08,21.08,0,0,1-5.1,8.2,24.06,24.06,0,0,1-8.4,5.5,34.64,34.64,0,0,1-23.2,0,23.16,23.16,0,0,1-8.4-5.5,24.68,24.68,0,0,1-5.1-8.2,31.5,31.5,0,0,1-1.7-10.4v-39h14V795a16.27,16.27,0,0,0,.9,5.5,12.38,12.38,0,0,0,2.6,4.3,12.19,12.19,0,0,0,4.1,2.9,12.69,12.69,0,0,0,5.2,1,11.91,11.91,0,0,0,5.1-1,10.59,10.59,0,0,0,4-2.9,13.38,13.38,0,0,0,2.6-4.3,16.27,16.27,0,0,0,.9-5.5V756.6h14v39Z"/><path class="cls-2" d="M326,756.7h19l27,44.1h.2V756.7h14v63.4H367.9L340.2,775H340v45.1H326Z"/><path class="cls-2" d="M399,756.7h21a61.93,61.93,0,0,1,14.5,1.7,33.07,33.07,0,0,1,12,5.5,26.39,26.39,0,0,1,8.1,9.9,33.38,33.38,0,0,1,3,14.8,30.91,30.91,0,0,1-2.9,13.6,30.35,30.35,0,0,1-7.8,9.9,32.77,32.77,0,0,1-11.4,6,43.33,43.33,0,0,1-13.5,2.1H399Zm14,50.5h7.3a37.06,37.06,0,0,0,9-1,18.36,18.36,0,0,0,7.2-3.3,16.8,16.8,0,0,0,4.8-6,20.84,20.84,0,0,0,1.7-9.1,18.59,18.59,0,0,0-1.7-8.1,16.36,16.36,0,0,0-4.7-5.7,22.24,22.24,0,0,0-6.9-3.4,32.76,32.76,0,0,0-8.4-1.1H413Z"/><path class="cls-2" d="M487.8,756.7h11.6L527,820.1H511.2l-5.5-13.4H481.1l-5.3,13.4H460.4Zm5.4,18.4-7.7,19.7H501Z"/><path class="cls-2" d="M537.4,769H519.3V756.6h50.2V769H551.4v51.1h-14V769Z"/><path class="cls-2" d="M590.3,756.7h-14v63.4h14Z"/><path class="cls-2" d="M599.6,788.4a35.73,35.73,0,0,1,2.6-13.8,30.94,30.94,0,0,1,7.1-10.5,32.27,32.27,0,0,1,10.8-6.7,37.9,37.9,0,0,1,13.7-2.3,40.18,40.18,0,0,1,13.7,2.3,31.31,31.31,0,0,1,10.8,6.7,30.94,30.94,0,0,1,7.1,10.5,37.92,37.92,0,0,1,0,27.6,30.94,30.94,0,0,1-7.1,10.5,32.27,32.27,0,0,1-10.8,6.7,37.9,37.9,0,0,1-13.7,2.3,40.18,40.18,0,0,1-13.7-2.3,31.31,31.31,0,0,1-10.8-6.7,30.94,30.94,0,0,1-7.1-10.5A35.73,35.73,0,0,1,599.6,788.4Zm14.6,0a23.91,23.91,0,0,0,1.4,8.2,18.52,18.52,0,0,0,10.2,10.8,22.62,22.62,0,0,0,16.2,0,16.88,16.88,0,0,0,6.2-4.3,18.71,18.71,0,0,0,4-6.5,23.91,23.91,0,0,0,1.4-8.2,24.77,24.77,0,0,0-1.4-8.2,18.71,18.71,0,0,0-4-6.5,19.66,19.66,0,0,0-6.2-4.3,22.62,22.62,0,0,0-16.2,0,16.88,16.88,0,0,0-6.2,4.3,18.71,18.71,0,0,0-4,6.5A22.09,22.09,0,0,0,614.2,788.4Z"/><path class="cls-2" d="M677.6,756.7h19l27,44.1h.2V756.7h14v63.4H719.5L691.8,775h-.2v45.1h-14Z"/><path class="cls-2" d="M409.8,526.9h36.4L533,726.4H483.4l-17.2-42.3H388.7L372,726.4H323.5ZM426.7,585l-24.2,62h48.8Z"/><path class="cls-2" d="M554.6,526.9h44v82.9l77.5-82.9h57.5l-88.8,92.7,96.4,106.8H679.8l-81.2-94.7v94.7h-44Z"/><path class="cls-1" d="M250.1,209.5v32.4a10.76,10.76,0,0,1-10.8,10.8H207a10.76,10.76,0,0,1-10.8-10.8V209.5A10.76,10.76,0,0,1,207,198.7h32.4A10.73,10.73,0,0,1,250.1,209.5Z"/></svg>